<?xml version="1.0" standalone="no"?>
<!DOCTYPE svg PUBLIC "-//W3C//DTD SVG 1.1//EN" "http://www.w3.org/Graphics/SVG/1.1/DTD/svg11.dtd" >
<svg xmlns="http://www.w3.org/2000/svg">
<metadata></metadata>
<defs>
<font id="bump_it_upregular" horiz-adv-x="2256" >
<font-face units-per-em="2048" ascent="2048" descent="0" />
<missing-glyph horiz-adv-x="976" />
<glyph horiz-adv-x="0" />
<glyph horiz-adv-x="682" />
<glyph unicode=" "  horiz-adv-x="976" />
<glyph unicode="&#x09;" horiz-adv-x="976" />
<glyph unicode="&#xa0;" horiz-adv-x="976" />
<glyph unicode="!" horiz-adv-x="720" d="M0 0v512h512v-512h-512zM0 768v1280h512v-1280h-512z" />
<glyph unicode="&#x22;" horiz-adv-x="1488" d="M0 1280v768h512v-768h-512zM768 1280v768h512v-768h-512z" />
<glyph unicode="#" d="M0 256v512h256v512h-256v512h256v256h512v-256h512v256h512v-256h256v-512h-256v-512h256v-512h-256v-256h-512v256h-512v-256h-512v256h-256zM768 768h512v512h-512v-512z" />
<glyph unicode="$" d="M0 0v512h1536v256h-1536v1024q0 106 74 180q76 76 182 76h512v256h512v-256h768v-512h-1536v-256h1536v-1024q0 -108 -76 -182t-180 -74h-512v-256h-512v256h-768z" />
<glyph unicode="%" d="M0 0v1024q0 106 74 180q76 76 182 76h1280v768h512v-1024q0 -108 -76 -182t-180 -74h-1280v-768h-512zM0 1536v256q0 106 74 180q76 76 182 76h256v-256q0 -108 -76 -182t-180 -74h-256zM1536 0v256q0 106 74 180q76 76 182 76h256v-256q0 -108 -76 -182t-180 -74h-256z " />
<glyph unicode="&#x26;" d="M0 0v768q0 106 74 180q76 76 182 76q-108 0 -182 74q-74 76 -74 182v768h1536v256h512v-768h-1536v-256h1024v-512h-1024v-256h1536v-768h-512v256h-1536z" />
<glyph unicode="'" horiz-adv-x="720" d="M0 1280v768h512v-768h-512z" />
<glyph unicode="(" horiz-adv-x="976" d="M0 256v1536q0 106 74 180q76 76 182 76h512v-512h-256v-1024h256v-512h-512q-108 0 -182 74q-74 76 -74 182z" />
<glyph unicode=")" horiz-adv-x="976" d="M0 0v512h256v1024h-256v512h512q106 0 180 -76q76 -76 76 -180v-1536q0 -108 -76 -182t-180 -74h-512z" />
<glyph unicode="*" horiz-adv-x="976" d="M0 1536v256h256q0 106 74 180q76 76 182 76v-256h256v-256h-256q0 -108 -76 -182t-180 -74v256h-256z" />
<glyph unicode="+" horiz-adv-x="1744" d="M0 768v512h512v512h512v-512h512v-512h-512v-512h-512v512h-512z" />
<glyph unicode="," horiz-adv-x="720" d="M0 0v512h512v-768h-256q-108 0 -182 76t-74 180z" />
<glyph unicode="-" horiz-adv-x="1744" d="M0 768v512h1536v-512h-1536z" />
<glyph unicode="." horiz-adv-x="720" d="M0 0v512h512v-512h-512z" />
<glyph unicode="/" horiz-adv-x="1488" d="M0 0v1024q0 106 74 180q76 76 182 76h512v768h512v-1024q0 -108 -76 -182t-180 -74h-512v-768h-512z" />
<glyph unicode="0" d="M0 0v1792q0 106 74 180q76 76 182 76h1792v-1792q0 -108 -76 -182t-180 -74h-1792zM512 512h1024v1024h-1024v-1024zM768 768v512h512v-512h-512z" />
<glyph unicode="1" d="M0 0v512h768v1024h-768v512h1024q106 0 180 -76q76 -76 76 -180v-1280h768v-512h-2048z" />
<glyph unicode="2" d="M0 0v1024q0 106 74 180q76 76 182 76h1280v256h-1536v512h2048v-1024q0 -108 -76 -182t-180 -74h-1280v-256h1536v-512h-2048z" />
<glyph unicode="3" d="M0 0v512h1536v256h-1536v512h1536v256h-1536v512h1792q106 0 180 -76q76 -76 76 -180v-1536q0 -108 -76 -182t-180 -74h-1792z" />
<glyph unicode="4" d="M0 768v1280h512v-1024h1024v1024h512v-2048h-512v512h-1280q-108 0 -182 74q-74 76 -74 182z" />
<glyph unicode="5" d="M0 0v512h1536v256h-1280q-108 0 -182 74q-74 76 -74 182v1024h2048v-512h-1536v-256h1280q106 0 180 -76q76 -76 76 -180v-1024h-2048z" />
<glyph unicode="6" d="M0 0v2048h2048v-512h-1536v-256h1280q106 0 180 -76q76 -76 76 -180v-1024h-2048zM512 512h1024v256h-1024v-256z" />
<glyph unicode="7" d="M0 1536v512h1792q106 0 180 -76q76 -76 76 -180v-1792h-512v1536h-1536z" />
<glyph unicode="8" d="M0 0v1792q0 106 74 180q76 76 182 76h1792v-1792q0 -108 -76 -182t-180 -74h-1792zM512 512h1024v256h-1024v-256zM512 1280h1024v256h-1024v-256z" />
<glyph unicode="9" d="M0 0v512h1536v256h-1280q-108 0 -182 74q-74 76 -74 182v1024h2048v-2048h-2048zM512 1280h1024v256h-1024v-256z" />
<glyph unicode=":" horiz-adv-x="720" d="M0 0v512h512v-256q0 -108 -76 -182t-180 -74h-256zM0 768v256q0 106 74 180q76 76 182 76h256v-512h-512z" />
<glyph unicode=";" horiz-adv-x="720" d="M0 0v512h512v-768h-256q-108 0 -182 76t-74 180zM0 768v512h256q106 0 180 -76q76 -76 76 -180v-256h-512z" />
<glyph unicode="=" d="M0 256v512h2048v-512h-2048zM0 1024v512h2048v-512h-2048z" />
<glyph unicode="?" d="M0 0v512h512v-512h-512zM0 768v512h1536v256h-1536v512h2048v-1024q0 -108 -76 -182t-180 -74h-1792z" />
<glyph unicode="@" d="M0 256v1792h1792q106 0 180 -76q76 -76 76 -180v-1280h-1536v768q0 106 74 180q76 76 182 76h768v-768h256v1024h-1536v-1536h1792v-256h-1792q-108 0 -182 74q-74 76 -74 182zM896 896h256v256h-256v-256z" />
<glyph unicode="A" d="M0 0v1792q0 106 74 180q76 76 182 76h1792v-2048h-512v512h-1024v-512h-512zM512 1024h1024v512h-1024v-512z" />
<glyph unicode="B" d="M0 0v2048h2048v-768q0 -108 -76 -182t-180 -74q106 0 180 -76q76 -76 76 -180v-768h-2048zM512 512h1024v256h-1024v-256zM512 1280h1024v256h-1024v-256z" />
<glyph unicode="C" d="M0 256v1792h2048v-512h-1536v-1024h1536v-512h-1792q-108 0 -182 74q-74 76 -74 182z" />
<glyph unicode="D" d="M0 0v2048h1792q106 0 180 -76q76 -76 76 -180v-1792h-2048zM512 512h1024v1024h-1024v-1024z" />
<glyph unicode="E" d="M0 256v1792h2048v-512h-1536v-256h1536v-512h-1536v-256h1536v-512h-1792q-108 0 -182 74q-74 76 -74 182z" />
<glyph unicode="F" d="M0 0v1792q0 106 74 180q76 76 182 76h1792v-512h-1536v-256h1536v-512h-1536v-768h-512z" />
<glyph unicode="G" d="M0 0v2048h2048v-512h-1536v-1024h1024v768h512v-1024q0 -108 -76 -182t-180 -74h-1792z" />
<glyph unicode="H" d="M0 0v2048h512v-768h1024v768h512v-2048h-512v768h-1024v-768h-512z" />
<glyph unicode="I" d="M0 0v512h768v1024h-768v512h2048v-512h-768v-1024h768v-512h-2048z" />
<glyph unicode="J" d="M0 0v768h512v-256h1024v1536h512v-1792q0 -108 -76 -182t-180 -74h-1792z" />
<glyph unicode="K" d="M0 0v2048h512v-768h1024v768h512v-768q0 -108 -76 -182t-180 -74q106 0 180 -76q76 -76 76 -180v-768h-512v768h-1024v-768h-512z" />
<glyph unicode="L" d="M0 256v1792h512v-1536h1536v-512h-1792q-108 0 -182 74q-74 76 -74 182z" />
<glyph unicode="M" d="M0 0v2048h768q106 0 180 -76q76 -76 76 -180q0 106 74 180q76 76 182 76h768v-2048h-512v1536h-256v-1536h-512v1536h-256v-1536h-512z" />
<glyph unicode="N" d="M0 0v2048h1792q106 0 180 -76q76 -76 76 -180v-1792h-512v1536h-1024v-1536h-512z" />
<glyph unicode="O" d="M0 0v1792q0 106 74 180q76 76 182 76h1792v-1792q0 -108 -76 -182t-180 -74h-1792zM512 512h1024v1024h-1024v-1024z" />
<glyph unicode="P" d="M0 0v2048h2048v-1280q0 -108 -76 -182t-180 -74h-1280v-512h-512zM512 1024h1024v512h-1024v-512z" />
<glyph unicode="Q" d="M0 0v1792q0 106 74 180q76 76 182 76h1792v-1792q0 -108 -76 -182t-180 -74h-1792zM512 512h256v256h512v-256h256v1024h-1024v-1024z" />
<glyph unicode="R" d="M0 0v2048h1792q106 0 180 -76q76 -76 76 -180v-768q0 -108 -76 -182t-180 -74q106 0 180 -76q76 -76 76 -180v-512h-512v512h-1024v-512h-512zM512 1024h1024v512h-1024v-512z" />
<glyph unicode="S" d="M0 0v512h1536v256h-1536v1024q0 106 74 180q76 76 182 76h1792v-512h-1536v-256h1536v-1024q0 -108 -76 -182t-180 -74h-1792z" />
<glyph unicode="T" d="M0 1536v512h2048v-512h-768v-1536h-512v1536h-768z" />
<glyph unicode="U" d="M0 256v1792h512v-1536h1024v1536h512v-2048h-1792q-108 0 -182 74q-74 76 -74 182z" />
<glyph unicode="V" d="M0 0v2048h512v-1536h1024v1536h512v-1792q0 -108 -76 -182t-180 -74h-1792z" />
<glyph unicode="W" d="M0 256v1792h512v-1536h256v1536h512v-1536h256v1536h512v-2048h-1792q-108 0 -182 74q-74 76 -74 182z" />
<glyph unicode="X" d="M0 0v768q0 106 74 180q76 76 182 76q-108 0 -182 74q-74 76 -74 182v768h512v-768h1024v768h512v-768q0 -108 -76 -182t-180 -74q106 0 180 -76q76 -76 76 -180v-768h-512v768h-1024v-768h-512z" />
<glyph unicode="Y" d="M0 768v1280h512v-1024h1024v1024h512v-1280q0 -108 -76 -182t-180 -74h-512v-512h-512v512h-512q-108 0 -182 74q-74 76 -74 182z" />
<glyph unicode="Z" d="M0 256v1024h1536v256h-1536v512h1792q106 0 180 -76q76 -76 76 -180v-1024h-1536v-256h1536v-512h-1792q-108 0 -182 74q-74 76 -74 182z" />
<glyph unicode="_" d="M0 -128h2048v-128h-2048v128z" />
<glyph unicode="a" d="M0 0v1024q0 106 74 180q76 76 182 76h1280v256h-1536v512h2048v-2048h-2048zM512 512h1024v256h-1024v-256z" />
<glyph unicode="b" d="M0 0v2048h512v-256h1280q106 0 180 -76q76 -76 76 -180v-1536h-2048zM512 512h1024v768h-1024v-768z" />
<glyph unicode="c" d="M0 256v1792h2048v-512h-1536v-1024h1536v-512h-1792q-108 0 -182 74q-74 76 -74 182z" />
<glyph unicode="d" d="M0 0v1536q0 106 74 180q76 76 182 76h1280v256h512v-2048h-2048zM512 512h1024v768h-1024v-768z" />
<glyph unicode="e" d="M0 0v2048h2048v-1024q0 -108 -76 -182t-180 -74h-1280v-256h1536v-512h-2048zM512 1280h1024v256h-1024v-256z" />
<glyph unicode="f" d="M0 0v1792q0 106 74 180q76 76 182 76h1792v-512h-1536v-512h1536v-512h-1536v-512h-512z" />
<glyph unicode="g" d="M0 0v512h1536v256h-1536v1280h2048v-1792q0 -108 -76 -182t-180 -74h-1792zM512 1280h1024v256h-1024v-256z" />
<glyph unicode="h" d="M0 0v2048h512v-256h1280q106 0 180 -76q76 -76 76 -180v-1536h-512v1280h-1024v-1280h-512z" />
<glyph unicode="i" d="M0 0v512h768v1024h-768v512h2048v-512h-768v-1024h768v-512h-2048z" />
<glyph unicode="j" d="M0 0v512h1536v1536h512v-1792q0 -108 -76 -182t-180 -74h-1792z" />
<glyph unicode="k" d="M0 0v2048h512v-768h1024v512h512v-512q0 -108 -76 -182t-180 -74q106 0 180 -76q76 -76 76 -180v-768h-512v768h-1024v-768h-512z" />
<glyph unicode="l" d="M0 256v1792h512v-1536h1536v-512h-1792q-108 0 -182 74q-74 76 -74 182z" />
<glyph unicode="m" d="M0 0v2048h1792q106 0 180 -76q76 -76 76 -180v-1792h-512v1536h-256v-1536h-512v1536h-256v-1536h-512z" />
<glyph unicode="n" d="M0 0v2048h1792q106 0 180 -76q76 -76 76 -180v-1792h-512v1536h-1024v-1536h-512z" />
<glyph unicode="o" d="M0 0v1792q0 106 74 180q76 76 182 76h1792v-1792q0 -108 -76 -182t-180 -74h-1792zM512 512h1024v1024h-1024v-1024z" />
<glyph unicode="p" d="M0 0v2048h2048v-1536q0 -108 -76 -182t-180 -74h-1280v-256h-512zM512 768h1024v768h-1024v-768z" />
<glyph unicode="q" d="M0 512v1536h2048v-2048h-512v256h-1280q-108 0 -182 74q-74 76 -74 182zM512 768h1024v768h-1024v-768z" />
<glyph unicode="r" d="M0 0v1792q0 106 74 180q76 76 182 76h1792v-768h-512v256h-1024v-1536h-512z" />
<glyph unicode="s" d="M0 0v512h1536v256h-1536v1024q0 106 74 180q76 76 182 76h1792v-512h-1536v-256h1536v-1024q0 -108 -76 -182t-180 -74h-1792z" />
<glyph unicode="t" d="M0 256v1792h512v-256h1536v-512h-1536v-768h1536v-512h-1792q-108 0 -182 74q-74 76 -74 182z" />
<glyph unicode="u" d="M0 256v1792h512v-1536h1024v1536h512v-2048h-1792q-108 0 -182 74q-74 76 -74 182z" />
<glyph unicode="v" d="M0 0v1792h512v-1280h1024v1536h512v-1792q0 -108 -76 -182t-180 -74h-1792z" />
<glyph unicode="w" d="M0 256v1792h512v-1536h256v1536h512v-1536h256v1536h512v-2048h-1792q-108 0 -182 74q-74 76 -74 182z" />
<glyph unicode="x" d="M0 0v512q0 106 74 180q76 76 182 76q-108 0 -182 74q-74 76 -74 182v1024h512v-1024h1024v1024h512v-1024q0 -108 -76 -182t-180 -74q106 0 180 -76q76 -76 76 -180v-512h-512v512h-1024v-512h-512z" />
<glyph unicode="y" d="M0 0v512h1536v256h-1536v1280h512v-768h1024v768h512v-1792q0 -108 -76 -182t-180 -74h-1792z" />
<glyph unicode="z" d="M0 256v1024h1536v256h-1536v512h1792q106 0 180 -76q76 -76 76 -180v-1024h-1536v-256h1536v-512h-1792q-108 0 -182 74q-74 76 -74 182z" />
<glyph unicode="|" horiz-adv-x="720" d="M0 -256v2560h512v-2560h-512z" />
<glyph unicode="&#xad;" horiz-adv-x="1744" d="M0 768v512h1536v-512h-1536z" />
<glyph unicode="&#x2000;" horiz-adv-x="1152" />
<glyph unicode="&#x2001;" horiz-adv-x="2304" />
<glyph unicode="&#x2002;" horiz-adv-x="1152" />
<glyph unicode="&#x2003;" horiz-adv-x="2304" />
<glyph unicode="&#x2004;" horiz-adv-x="768" />
<glyph unicode="&#x2005;" horiz-adv-x="576" />
<glyph unicode="&#x2006;" horiz-adv-x="384" />
<glyph unicode="&#x2007;" horiz-adv-x="384" />
<glyph unicode="&#x2008;" horiz-adv-x="288" />
<glyph unicode="&#x2009;" horiz-adv-x="460" />
<glyph unicode="&#x200a;" horiz-adv-x="128" />
<glyph unicode="&#x2010;" horiz-adv-x="1744" d="M0 768v512h1536v-512h-1536z" />
<glyph unicode="&#x2011;" horiz-adv-x="1744" d="M0 768v512h1536v-512h-1536z" />
<glyph unicode="&#x2012;" horiz-adv-x="1744" d="M0 768v512h1536v-512h-1536z" />
<glyph unicode="&#x2013;" horiz-adv-x="1232" d="M0 768v512h1024v-512h-1024z" />
<glyph unicode="&#x2014;" d="M0 768v512h2048v-512h-2048z" />
<glyph unicode="&#x2018;" horiz-adv-x="720" d="M0 1536v256q0 106 74 180q76 76 182 76h256v-512h-512z" />
<glyph unicode="&#x2019;" horiz-adv-x="720" d="M0 1536v512h512v-256q0 -108 -76 -182t-180 -74h-256z" />
<glyph unicode="&#x201c;" horiz-adv-x="1488" d="M0 1536v256q0 106 74 180q76 76 182 76h256v-512h-512zM768 1536v256q0 106 74 180q76 76 182 76h256v-512h-512z" />
<glyph unicode="&#x201d;" horiz-adv-x="1488" d="M0 1536v512h512v-256q0 -108 -76 -182t-180 -74h-256zM768 1536v512h512v-256q0 -108 -76 -182t-180 -74h-256z" />
<glyph unicode="&#x202f;" horiz-adv-x="460" />
<glyph unicode="&#x205f;" horiz-adv-x="576" />
<glyph unicode="&#x25fc;" horiz-adv-x="2050" d="M0 0v2050h2050v-2050h-2050z" />
</font>
</defs>
</svg>
